<svg width="42" height="42" viewBox="0 0 42 42" fill="none" xmlns="http://www.w3.org/2000/svg">
<path d="M20.9999 41.5714C32.3612 41.5714 41.5714 32.3613 41.5714 21C41.5714 9.6387 32.3612 0.428566 20.9999 0.428566C9.63867 0.428566 0.428528 9.6387 0.428528 21C0.428528 32.3613 9.63867 41.5714 20.9999 41.5714Z" fill="#BAB1AB"/>
<path d="M37.743 20.4326C37.743 22.7029 36.9169 24.2511 35.2662 25.0764C34.784 25.3175 33.2708 25.6438 30.7253 26.0569C29.0746 26.3325 28.2493 26.969 28.2493 27.9655V32.1448C28.2493 32.3184 28.3007 32.8504 28.4036 33.7448L28.5587 35.3963C28.5587 35.9126 28.4382 36.7565 28.1971 37.9249C27.5437 38.0623 26.7867 38.2166 25.9268 38.3907C25.6511 37.3576 25.5137 36.6528 25.5137 36.2734C25.5137 36.1023 25.5569 35.8435 25.6425 35.4991C25.7277 35.156 25.7725 34.898 25.7725 34.7244C25.7725 34.4858 25.5586 33.8139 25.1311 32.7138H24.3309C24.2247 32.8857 24.1893 33.1091 24.2239 33.384C24.3613 33.969 24.4127 34.4673 24.379 34.8804C23.794 35.2934 22.9855 35.8435 21.9536 36.5314C21.7125 36.4631 21.6274 36.4286 21.6948 36.4286V32.7652C21.6274 32.594 21.4546 32.5262 21.1789 32.5587H20.5601L19.9413 37.4082C19.4583 37.4427 18.8749 37.4427 18.187 37.4082C17.9451 36.2734 17.516 34.5886 16.8972 32.3521H16.4841C16.1048 33.5572 15.8991 34.2114 15.8645 34.3142C15.8645 34.4516 15.9073 34.7178 15.9937 35.1132C16.0788 35.509 16.1225 35.7752 16.1225 35.9126C16.1225 36.0155 16.0879 36.2734 16.0196 36.6865L15.8645 37.9249C15.7954 37.9932 15.7094 38.0278 15.6065 38.0278C14.5747 38.0278 13.8859 37.7698 13.5428 37.2547C13.1989 36.7379 13.0606 36.0155 13.1297 35.0861L13.5428 28.8953C13.5428 28.7916 13.5765 28.6542 13.6457 28.4822C13.7131 28.3102 13.7485 28.1897 13.7485 28.1214C13.7485 27.8457 13.456 27.2953 12.8718 26.4699C12.7697 26.4362 12.2345 26.3148 11.2725 26.1083C10.6867 25.9709 9.53425 25.7306 7.81572 25.3858C5.44136 24.9398 4.25522 23.0304 4.25522 19.6587C4.25522 14.6364 6.31976 10.4571 10.4476 7.12045C10.618 8.04946 10.9113 9.28704 11.3236 10.8352C11.6338 10.9052 12.3048 11.0595 13.3359 11.2997C13.5432 11.3689 14.5919 11.7474 16.4841 12.4353C15.5197 11.8502 14.2653 10.9052 12.7171 9.59725C12.132 8.90935 11.8395 7.75776 11.8395 6.14125C11.8395 5.76274 12.4937 5.31511 13.8012 4.79835C14.9696 4.31698 15.848 4.04297 16.4327 3.97303C18.2899 3.73358 19.7175 3.61138 20.7156 3.61138C25.0147 3.61138 28.4879 4.71319 31.1363 6.91474C30.2772 7.91287 28.7977 8.97764 26.6999 10.1128C27.526 10.1473 28.7299 9.82189 30.3118 9.13234C31.8933 8.44525 32.5644 8.10048 32.3241 8.10048C32.5989 8.10048 33.1502 8.65179 33.9756 9.75195C34.5944 10.5773 35.0926 11.3183 35.4719 11.97C36.5721 13.9317 37.3114 16.0464 37.6908 18.3167C37.6908 19.1091 37.7076 19.6764 37.7422 20.0196V20.4326H37.743ZM17.9817 21.3616C17.9817 19.883 17.3366 18.4808 16.0468 17.1556C14.7561 15.8312 13.3716 15.17 11.893 15.17C10.5855 15.17 9.43387 15.7247 8.43616 16.8318C7.43804 17.9398 6.93979 19.1695 6.93979 20.5194C6.93979 21.6957 7.50715 22.4585 8.64269 22.8041C9.36516 23.0123 10.3785 23.1337 11.6864 23.1674H14.5245C16.8276 23.202 17.9817 22.6 17.9817 21.3616ZM23.6051 27.7606V26.1605C23.3648 25.7137 23.1237 25.2492 22.8835 24.767C22.6769 24.0783 22.2984 23.1156 21.7479 21.8767L21.1797 27.914C21.1797 28.3962 21.0769 28.6365 20.8703 28.6365C20.7329 28.6365 20.6301 28.6028 20.561 28.5345C20.3199 24.888 20.1993 23.3056 20.1993 23.7862V21.9812C20.1302 21.8767 20.045 21.8253 19.9422 21.8253C18.7721 23.0308 18.1878 24.9736 18.1878 27.6561C18.1878 29.1356 18.3236 30.0469 18.6001 30.3913C18.8757 30.323 19.1851 30.2024 19.5291 30.0304C19.6665 29.9613 20.0619 29.9268 20.7169 29.9268C21.3686 29.9268 22.161 30.1333 23.0892 30.5455C23.4331 30.5455 23.6051 29.6174 23.6051 27.7606ZM35.2666 20.5709C35.2666 19.1856 34.7507 17.948 33.7188 16.8577C32.6862 15.7683 31.4992 15.2223 30.1592 15.2223C28.7142 15.2223 27.3635 15.8835 26.1082 17.2079C24.8521 18.5322 24.2247 19.9167 24.2247 21.3616C24.2247 22.5663 24.8089 23.1674 25.9791 23.1674H31.9127C34.148 23.1337 35.2666 22.268 35.2666 20.5709Z" fill="#0D0F0F"/>
</svg>
