<svg width="42" height="42" viewBox="0 0 42 42" fill="none" xmlns="http://www.w3.org/2000/svg">
<path d="M20.9998 41.5714C32.3611 41.5714 41.5712 32.3613 41.5712 21C41.5712 9.6387 32.3611 0.428566 20.9998 0.428566C9.63854 0.428566 0.428406 9.6387 0.428406 21C0.428406 32.3613 9.63854 41.5714 20.9998 41.5714Z" fill="#C1D7E9"/>
<path d="M28.1949 34.8729C26.2254 36.877 23.7992 37.8792 20.9175 37.8792C17.6833 37.8792 15.1172 36.7725 13.2193 34.5578C11.4259 32.4484 10.5298 29.7597 10.5298 26.4913C10.5298 22.9765 12.0591 18.9679 15.1172 14.4677C17.6121 10.7776 20.5477 7.5434 23.9226 4.76626C23.4301 7.01636 23.1849 8.61517 23.1849 9.56434C23.1849 11.7445 23.8695 13.8708 25.2404 15.9448C26.9281 18.4051 28.2105 20.2343 29.0901 21.4283C30.461 23.5031 31.1465 25.5241 31.1465 27.4915C31.1473 30.4098 30.1627 32.8705 28.1949 34.8729ZM28.1418 23.6154C27.6148 22.4383 26.9993 21.6562 26.2961 21.2691C26.4015 21.4805 26.4545 21.7792 26.4545 22.166C26.4545 22.9045 26.2439 23.9586 25.8213 25.3294L25.1367 27.4388C25.1367 28.669 25.7506 29.2845 26.9816 29.2845C28.2817 29.2845 28.9326 28.4226 28.9326 26.7003C28.9326 25.8223 28.6693 24.7946 28.1418 23.6154Z" fill="#0D0F0F"/>
</svg>
