<svg width="76" height="76" viewBox="0 0 76 76" fill="none" xmlns="http://www.w3.org/2000/svg">
<g clip-path="url(#clip0_113_271)">
<path d="M38 73.4646C57.5866 73.4646 73.4646 57.5866 73.4646 38C73.4646 18.4134 57.5866 2.5354 38 2.5354C18.4134 2.5354 2.5354 18.4134 2.5354 38C2.5354 57.5866 18.4134 73.4646 38 73.4646Z" fill="#E7610E"/>
<path d="M38 76C17.0468 76 0 58.9532 0 38C0 17.0468 17.0468 0 38 0C58.9532 0 76 17.0468 76 38C76 58.9532 58.9532 76 38 76ZM38 5.07077C19.843 5.07077 5.07077 19.843 5.07077 38C5.07077 56.157 19.843 70.9292 38 70.9292C56.157 70.9292 70.9292 56.157 70.9292 38C70.9292 19.843 56.157 5.07077 38 5.07077Z" fill="#E87731"/>
<path d="M53.0076 37.8678C53.0076 37.8678 53.0021 37.8533 52.9985 37.8461C52.9532 37.2901 52.9116 36.7341 52.8681 36.1782C52.7866 35.135 52.7033 34.0575 52.611 32.9944C52.4027 30.5967 52.1673 27.9889 51.8902 25.0243C51.8521 24.624 51.7942 24.2383 51.7362 23.8634C51.7109 23.6986 51.6855 23.5356 51.662 23.3708C51.5877 22.8384 51.1332 22.44 50.5953 22.4364H50.4595C50.4595 22.4364 50.4541 22.4364 50.4504 22.4364C49.909 22.4364 49.4508 22.8348 49.3747 23.3708L49.2697 24.1133C49.1972 24.6367 49.123 25.1619 49.0451 25.6853C48.9528 26.3101 48.8604 26.933 48.768 27.5578C48.4837 29.492 48.1885 31.4913 47.8698 33.4508C47.8209 33.7514 47.7358 34.0611 47.638 34.3816C47.6235 34.3762 47.6108 34.3708 47.5963 34.3672C47.4496 33.8836 47.312 33.4254 47.2414 32.9799L47.1997 32.7228C46.881 30.7216 46.5496 28.6535 46.2978 26.6197C46.0968 24.9953 45.9302 23.3328 45.769 21.7246C45.6875 20.9188 45.6079 20.1129 45.5227 19.3088C45.4829 18.9339 45.434 18.559 45.3869 18.1968C45.3652 18.0302 45.3435 17.8618 45.3217 17.6952C45.2764 17.333 45.0519 17.0179 44.7241 16.8567C44.3963 16.6955 44.0106 16.7082 43.6955 16.8929C43.3224 17.1121 43.096 17.4598 43.0562 17.8745C43.0055 18.4323 42.9548 18.9882 42.9059 19.546C42.8026 20.7177 42.694 21.9311 42.5708 23.1173C42.3155 25.5621 42.0402 28.1591 41.7215 30.6909C41.6364 31.3645 41.4987 32.031 41.352 32.7391C41.3231 32.8803 41.2941 33.0216 41.2651 33.1629C41.2542 33.1629 41.2416 33.1629 41.2307 33.161C41.2108 33.0814 41.189 33.0035 41.1691 32.9238C41.0822 32.5906 40.9989 32.2755 40.9355 31.9622C40.3017 28.869 40.0463 25.7324 39.7982 22.2498C39.6841 20.6453 39.5881 19.01 39.4958 17.4272C39.436 16.3895 39.3744 15.35 39.3074 14.3123C39.2839 13.9446 39.235 13.5951 39.1861 13.2565C39.1662 13.1116 39.1444 12.9685 39.1263 12.8236C39.0557 12.2586 38.5631 11.8439 37.9945 11.8729L37.884 11.8783C37.3642 11.9073 36.9368 12.3021 36.8662 12.8182C36.8572 12.8906 36.8445 12.9649 36.8336 13.0373C36.8064 13.2184 36.7738 13.4249 36.7594 13.6422C36.6996 14.5223 36.6453 15.4043 36.5909 16.2862C36.4823 18.0447 36.37 19.8629 36.2197 21.6431C35.9734 24.5607 35.68 27.4836 35.345 30.3305C35.2562 31.0856 35.077 31.839 34.885 32.6359C34.8433 32.8097 34.8017 32.9836 34.7618 33.1574C34.7437 33.1574 34.7238 33.1592 34.7057 33.161C34.7039 33.152 34.7003 33.1411 34.6985 33.1303C34.617 32.7934 34.5391 32.4765 34.4992 32.1722C34.2149 30.057 33.9179 27.8023 33.6644 25.5386C33.5322 24.3633 33.429 23.1589 33.3275 21.9927C33.275 21.3769 33.2207 20.7612 33.1627 20.1473C33.1102 19.5913 33.0541 19.0353 32.9961 18.4793L32.9201 17.7513C32.8802 17.3602 32.6321 17.0215 32.2717 16.8639C31.9113 16.7082 31.4948 16.7571 31.1815 16.9961C30.8628 17.2388 30.6726 17.5702 30.631 17.956C30.5694 18.5282 30.5096 19.1023 30.4517 19.6764C30.3376 20.792 30.2181 21.9456 30.0841 23.0738L29.9953 23.82C29.7037 26.2956 29.4013 28.8563 29.05 31.3609C28.9413 32.1342 28.7512 32.9003 28.5483 33.7116C28.494 33.9307 28.4397 34.1498 28.3853 34.3708C28.3781 34.3744 28.3709 34.3762 28.3636 34.378C28.2948 34.1426 28.2296 33.9108 28.1735 33.679C27.6483 31.4949 27.373 29.2022 27.105 26.9838C27.0271 26.3427 26.951 25.6998 26.8677 25.0587C26.8152 24.6476 26.7464 24.2437 26.6794 23.8544C26.6486 23.6805 26.6196 23.5067 26.5907 23.331C26.5001 22.7786 26.0057 22.3857 25.4497 22.4201L25.3067 22.4291C24.7797 22.4617 24.3523 22.871 24.2943 23.3962C24.2545 23.7566 24.2146 24.1188 24.173 24.4792C24.0842 25.2633 23.9919 26.0746 23.9213 26.8805C23.742 28.9233 23.5681 30.9661 23.3961 33.0089C23.2874 34.2929 23.1788 35.5769 23.0683 36.8591C23.0465 37.1126 23.0121 37.3716 22.9759 37.6432C22.9578 37.7754 22.9415 37.9058 22.9252 38.038C22.9198 38.0815 22.918 38.1268 22.918 38.1702V38.7135C22.918 39.1627 23.195 39.5665 23.6152 39.7277C26.4259 40.807 28.8816 42.5818 30.9171 45.0067C33.4742 48.051 35.1023 51.6422 35.8955 55.9831C36.1436 57.3378 36.303 58.7521 36.4587 60.1194C36.5312 60.7569 36.6054 61.4179 36.6887 62.0681C36.7213 62.327 36.7576 62.586 36.7938 62.845L36.8409 63.1873C36.9133 63.7251 37.3733 64.1272 37.9184 64.1272H38.0741C38.6283 64.1272 39.0937 63.7088 39.1535 63.1583C39.2096 62.6367 39.264 62.1133 39.3165 61.59C39.4306 60.4798 39.5465 59.3335 39.6986 58.2179C40.3524 53.3916 41.7776 49.498 44.0522 46.3179C46.3105 43.1613 49.0324 41.0062 52.3737 39.7259C52.7939 39.5647 53.0709 39.1608 53.0709 38.7117V38.2463C53.0709 38.1159 53.0474 37.9855 53.0003 37.8624L53.0076 37.8678Z" fill="#E87731"/>
</g>
<defs>
<clipPath id="clip0_113_271">
<rect width="76" height="76" fill="white"/>
</clipPath>
</defs>
</svg>
