<svg width="42" height="42" viewBox="0 0 42 42" fill="none" xmlns="http://www.w3.org/2000/svg">
<g clip-path="url(#clip0_98_1098)">
<path d="M20.9999 41.5714C32.3612 41.5714 41.5713 32.3613 41.5713 21C41.5713 9.6387 32.3612 0.428566 20.9999 0.428566C9.63863 0.428566 0.428497 9.6387 0.428497 21C0.428497 32.3613 9.63863 41.5714 20.9999 41.5714Z" fill="#CCC2C0"/>
<path d="M20.9999 4.54285C24.399 11.7796 30.2203 17.6009 37.4571 21C30.2203 24.399 24.399 30.2203 20.9999 37.4571C17.6009 30.2203 11.7796 24.399 4.54279 21C11.7796 17.6009 17.6009 11.7796 20.9999 4.54285ZM20.9999 10.7143C18.9384 15.2811 15.281 18.9385 10.7142 21C15.281 23.0615 18.9384 26.7189 20.9999 31.2857C23.0614 26.7189 26.7188 23.0615 31.2856 21C26.7188 18.9385 23.0614 15.2811 20.9999 10.7143Z" fill="#130C0E"/>
</g>
<defs>
<clipPath id="clip0_98_1098">
<rect width="41.1428" height="41.1428" fill="white" transform="translate(0.428497 0.428566)"/>
</clipPath>
</defs>
</svg>
