<svg width="72" height="84" viewBox="0 0 72 84" fill="none" xmlns="http://www.w3.org/2000/svg">
<g clip-path="url(#clip0_113_223)">
<path d="M5.89608 26.4192L5.51489 26.2839V47.5287L12.9551 28.9267L5.89608 26.4192Z" fill="#CD113E"/>
<path d="M31.2824 61.4409L16.8638 33.8205L13.3262 42.6672L6.68262 59.2726L29.6932 61.2996L31.2824 61.4409Z" fill="#CD113E"/>
<path d="M49.8317 24.582L35.9999 7.11255L22.1682 24.582H49.8317Z" fill="#CD113E"/>
<path d="M15.6114 24.0874L24.7176 12.5858L9.18164 21.802L10.7528 22.3612L15.6114 24.0874Z" fill="#CD113E"/>
<path d="M33.2771 76.5018V67.0877L14.5383 65.4363L33.2771 76.5018Z" fill="#CD113E"/>
<path d="M61.2473 22.3612L62.8185 21.802L47.2825 12.5858L56.3887 24.0874L61.2473 22.3612Z" fill="#CD113E"/>
<path d="M59.0447 28.9267L66.4849 47.5287V26.2839L66.1037 26.4192L59.0447 28.9267Z" fill="#CD113E"/>
<path d="M21.0308 30.033L36 58.7073L50.9693 30.033H21.0308Z" fill="#CD113E"/>
<path d="M38.7227 76.5018L57.4635 65.4363L38.7227 67.0877V76.5018Z" fill="#CD113E"/>
<path d="M55.1362 33.8205L40.7175 61.4409L42.3068 61.2996L65.3174 59.2726L58.6758 42.6672L55.1362 33.8205Z" fill="#CD113E"/>
<path d="M71.9307 22.4258C71.9307 22.4157 71.9307 22.4056 71.9307 22.3956C71.9307 22.2966 71.9247 22.1977 71.9126 22.0988C71.9126 22.0968 71.9126 22.0927 71.9126 22.0907C71.9005 21.9938 71.8823 21.8989 71.8601 21.806C71.8561 21.7919 71.8541 21.7758 71.8501 21.7616C71.8279 21.6708 71.7996 21.5799 71.7674 21.4931C71.7613 21.4749 71.7553 21.4588 71.7472 21.4426C71.7129 21.3538 71.6746 21.267 71.6322 21.1822C71.6282 21.1741 71.6222 21.164 71.6181 21.156C71.5758 21.0752 71.5294 20.9965 71.479 20.9197C71.4709 20.9096 71.4648 20.8975 71.4588 20.8874C71.4063 20.8087 71.3479 20.734 71.2853 20.6633C71.2732 20.6492 71.2611 20.6351 71.249 20.623C71.1865 20.5523 71.1199 20.4837 71.0494 20.4191C71.0393 20.411 71.0292 20.4029 71.0211 20.3948C70.9505 20.3322 70.8759 20.2717 70.7972 20.2151C70.7932 20.2111 70.7892 20.2071 70.7831 20.203C70.7831 20.203 70.7791 20.201 70.7771 20.199C70.7206 20.1586 70.6601 20.1203 70.5996 20.0839L37.3877 0.381566C37.3756 0.37349 37.3635 0.369452 37.3514 0.361377C37.3131 0.339169 37.2727 0.31898 37.2344 0.298791C37.2264 0.294753 37.2183 0.290716 37.2102 0.286678C37.2001 0.28264 37.1921 0.276583 37.182 0.270527C37.1679 0.262451 37.1517 0.258413 37.1376 0.250338C37.1013 0.234187 37.063 0.218035 37.0247 0.201884C36.9904 0.187752 36.9561 0.17362 36.9218 0.161507C36.9137 0.157469 36.9037 0.15545 36.8956 0.151412C36.8673 0.141318 36.8391 0.133242 36.8109 0.125167C36.7685 0.113053 36.7282 0.0989209 36.6858 0.0888265C36.6677 0.0847887 36.6495 0.078732 36.6314 0.0746942C36.6112 0.0706565 36.591 0.0666187 36.5709 0.0625809C36.5325 0.0545053 36.4942 0.0464298 36.4579 0.0403731C36.4257 0.0343164 36.3934 0.0302786 36.3611 0.0262409C36.3611 0.0262409 36.3571 0.0262409 36.3551 0.0262409C36.3349 0.024222 36.3127 0.0201842 36.2925 0.0181653C36.2704 0.0161464 36.2502 0.0141275 36.228 0.0121086C36.1937 0.0100897 36.1574 0.00807083 36.1231 0.00605194C36.0868 0.00605194 36.0505 0.00201416 36.0122 0.00201416C36.0082 0.00201416 36.0041 0.00201416 36.0001 0.00201416C35.9961 0.00201416 35.992 0.00201416 35.986 0.00201416C35.9517 0.00201416 35.9174 0.00403305 35.8811 0.00605194C35.8428 0.00605194 35.8065 0.00807083 35.7682 0.0121086C35.748 0.0121086 35.7278 0.0161464 35.7056 0.0181653C35.6834 0.0201842 35.6633 0.024222 35.6411 0.0262409C35.6068 0.0302786 35.5725 0.0343164 35.5382 0.0403731C35.5019 0.0464298 35.4636 0.0545053 35.4273 0.0625809C35.4071 0.0666187 35.387 0.0706565 35.3668 0.0746942C35.3486 0.078732 35.3285 0.0847887 35.3103 0.0888265C35.27 0.0989209 35.2317 0.111034 35.1913 0.123148C35.1611 0.133242 35.1328 0.141318 35.1026 0.151412C35.0945 0.15545 35.0844 0.157469 35.0764 0.161507C35.0421 0.17362 35.0098 0.187752 34.9775 0.201884C34.9392 0.218035 34.8989 0.234187 34.8626 0.250338C34.8485 0.256394 34.8343 0.262451 34.8202 0.270527C34.8101 0.274564 34.8001 0.280621 34.79 0.286678C34.7819 0.290716 34.7758 0.294753 34.7698 0.298791C34.7295 0.31898 34.6891 0.341188 34.6488 0.363396C34.6367 0.369452 34.6246 0.375509 34.6125 0.383585L1.40462 20.0799C1.34412 20.1162 1.28563 20.1546 1.22714 20.195C1.22714 20.195 1.22311 20.197 1.22109 20.199C1.21705 20.203 1.21302 20.2071 1.20697 20.2111C1.12831 20.2676 1.0557 20.3262 0.983097 20.3908C0.973013 20.3989 0.962929 20.4069 0.954861 20.415C0.88427 20.4796 0.817713 20.5483 0.75519 20.6189C0.743089 20.6331 0.730988 20.6472 0.718887 20.6593C0.65838 20.732 0.599891 20.8067 0.545435 20.8834C0.537368 20.8935 0.531317 20.9056 0.525266 20.9157C0.474845 20.9924 0.428456 21.0712 0.386102 21.1519C0.382068 21.16 0.376018 21.1701 0.371984 21.1782C0.32963 21.263 0.291309 21.3498 0.257022 21.4386C0.250971 21.4548 0.242904 21.4729 0.236853 21.4891C0.204583 21.5779 0.176347 21.6667 0.154161 21.7576C0.150128 21.7717 0.148111 21.7879 0.144077 21.802C0.121891 21.8969 0.103739 21.9918 0.0916382 22.0867C0.0916382 22.0887 0.0916382 22.0927 0.0916382 22.0947C0.079537 22.1916 0.0755032 22.2906 0.0734863 22.3915C0.0734863 22.4016 0.0734863 22.4117 0.0734863 22.4218V61.663C0.0734863 61.6751 0.0734863 61.6872 0.0734863 61.6993C0.0734863 61.7458 0.0775201 61.7922 0.079537 61.8406C0.079537 61.8507 0.079537 61.8629 0.079537 61.8729C0.079537 61.881 0.079537 61.8911 0.079537 61.8992C0.079537 61.9133 0.0835707 61.9254 0.0835707 61.9375C0.0876045 61.9799 0.0936551 62.0223 0.0997057 62.0647C0.105756 62.1011 0.10979 62.1374 0.115841 62.1738C0.115841 62.1839 0.119874 62.1939 0.121891 62.204C0.121891 62.2081 0.123908 62.2121 0.125925 62.2182C0.129959 62.2404 0.136009 62.2606 0.14206 62.2828C0.152144 62.3232 0.160212 62.3615 0.170296 62.3999C0.178364 62.4261 0.186431 62.4503 0.194499 62.4766C0.200549 62.4988 0.208617 62.519 0.214668 62.5392C0.222735 62.5654 0.23282 62.5917 0.242904 62.6179C0.255005 62.6482 0.267106 62.6785 0.279208 62.7067C0.293326 62.7391 0.305427 62.7734 0.319545 62.8036C0.323579 62.8117 0.327613 62.8178 0.32963 62.8259C0.345765 62.8582 0.3619 62.8884 0.378035 62.9207C0.396186 62.9551 0.414338 62.9914 0.434507 63.0257C0.442575 63.0399 0.452659 63.054 0.460726 63.0681C0.46476 63.0742 0.466777 63.0802 0.470811 63.0863C0.478878 63.0984 0.486946 63.1085 0.495013 63.1206C0.499047 63.1247 0.501064 63.1307 0.505098 63.1348C0.52325 63.161 0.539385 63.1893 0.557537 63.2155C0.581739 63.2498 0.605942 63.2801 0.632161 63.3144C0.646279 63.3306 0.65838 63.3488 0.670482 63.3669C0.678549 63.377 0.686617 63.3891 0.694684 63.3992C0.728971 63.4396 0.765275 63.48 0.801579 63.5183C0.817713 63.5345 0.831832 63.5527 0.847967 63.5688C0.852 63.5728 0.858051 63.5789 0.862085 63.5829C0.866118 63.587 0.872169 63.591 0.876203 63.5951C0.900405 63.6173 0.924608 63.6395 0.94881 63.6617C0.970996 63.6839 0.993182 63.7061 1.01738 63.7263C1.03554 63.7424 1.0557 63.7566 1.07386 63.7707C1.09403 63.7869 1.11218 63.801 1.13235 63.8171C1.15655 63.8353 1.17873 63.8555 1.20294 63.8716C1.22109 63.8858 1.24126 63.8959 1.26143 63.91C1.28361 63.9262 1.30781 63.9403 1.33 63.9544C1.3421 63.9625 1.3542 63.9706 1.36832 63.9786C1.38042 63.9847 1.39051 63.9928 1.40261 63.9988C1.40261 63.9988 1.40664 64.0009 1.40664 64.0029L34.6145 83.6103C34.6145 83.6103 34.6246 83.6164 34.6306 83.6184C34.6367 83.6225 34.6407 83.6245 34.6468 83.6285C34.6528 83.6326 34.6609 83.6346 34.6669 83.6386C34.7637 83.6931 34.8606 83.7416 34.9614 83.7819C34.9695 83.786 34.9775 83.788 34.9856 83.792C35.0885 83.8324 35.1933 83.8688 35.2982 83.897C35.3043 83.897 35.3103 83.899 35.3164 83.9011C35.4253 83.9293 35.5342 83.9515 35.6451 83.9657C35.6492 83.9657 35.6532 83.9657 35.6552 83.9657C35.7682 83.9798 35.8811 83.9879 35.9961 83.9879C36.111 83.9879 36.224 83.9798 36.3369 83.9657C36.3409 83.9657 36.345 83.9657 36.349 83.9657C36.4579 83.9515 36.5668 83.9293 36.6737 83.9011C36.6818 83.9011 36.6878 83.897 36.6959 83.895C36.8008 83.8667 36.9037 83.8324 37.0065 83.792C37.0166 83.788 37.0247 83.786 37.0348 83.7819C37.1356 83.7416 37.2324 83.6931 37.3272 83.6386C37.3332 83.6346 37.3413 83.6326 37.3474 83.6285C37.3534 83.6245 37.3575 83.6225 37.3635 83.6184C37.3696 83.6144 37.3736 83.6124 37.3796 83.6103L70.5875 64.0029C70.5875 64.0029 70.5915 64.0009 70.5915 63.9988C70.6036 63.9928 70.6137 63.9847 70.6258 63.9786C70.6379 63.9706 70.65 63.9625 70.6641 63.9544C70.6883 63.9403 70.7105 63.9241 70.7327 63.91C70.7509 63.8979 70.771 63.8858 70.7912 63.8716C70.8154 63.8535 70.8376 63.8353 70.8618 63.8171C70.882 63.801 70.9001 63.7869 70.9203 63.7707C70.9384 63.7566 70.9586 63.7424 70.9768 63.7263C71.001 63.7061 71.0231 63.6839 71.0453 63.6617C71.0695 63.6395 71.0937 63.6173 71.1179 63.5951C71.122 63.591 71.128 63.587 71.1321 63.5829C71.1361 63.5789 71.1421 63.5728 71.1462 63.5688C71.1623 63.5527 71.1764 63.5345 71.1926 63.5183C71.2289 63.48 71.2652 63.4396 71.2995 63.3992C71.3075 63.3891 71.3156 63.377 71.3237 63.3669C71.3378 63.3508 71.3499 63.3326 71.362 63.3144C71.3862 63.2821 71.4124 63.2498 71.4366 63.2155C71.4548 63.1893 71.4709 63.161 71.489 63.1348C71.4931 63.1307 71.4951 63.1247 71.4991 63.1206C71.5072 63.1085 71.5153 63.0984 71.5233 63.0863C71.5274 63.0802 71.5294 63.0742 71.5334 63.0681C71.5415 63.054 71.5516 63.0399 71.5596 63.0257C71.5798 62.9914 71.598 62.9551 71.6161 62.9207C71.6322 62.8884 71.6504 62.8582 71.6645 62.8259C71.6685 62.8178 71.6726 62.8117 71.6746 62.8036C71.6887 62.7713 71.7008 62.7391 71.7149 62.7067C71.727 62.6765 71.7411 62.6482 71.7512 62.6179C71.7613 62.5917 71.7694 62.5654 71.7795 62.5392C71.7875 62.519 71.7936 62.4968 71.7996 62.4766C71.8077 62.4503 71.8158 62.4261 71.8238 62.3999C71.8339 62.3615 71.844 62.3211 71.8521 62.2808C71.8561 62.2586 71.8642 62.2384 71.8682 62.2162C71.8682 62.2121 71.8702 62.2061 71.8723 62.202C71.8743 62.1919 71.8763 62.1818 71.8783 62.1717C71.8844 62.1354 71.8904 62.0991 71.8944 62.0627C71.9005 62.0203 71.9065 61.9779 71.9106 61.9355C71.9106 61.9214 71.9146 61.9093 71.9146 61.8972C71.9146 61.8891 71.9146 61.879 71.9146 61.8709C71.9146 61.8608 71.9146 61.8487 71.9146 61.8386C71.9186 61.7922 71.9207 61.7458 71.9207 61.6973C71.9207 61.6852 71.9207 61.6731 71.9207 61.661V22.4258H71.9307ZM21.0308 30.035H50.9693L36.0001 58.7093L21.0308 30.033V30.035ZM22.1684 24.584L36.0001 7.11255L49.8318 24.582H22.1684V24.584ZM6.68279 59.2726L13.3264 42.6652L16.866 33.8184L31.2846 61.4389L29.6953 61.2996L6.6848 59.2726H6.68279ZM40.7176 61.4389L55.1362 33.8184L58.6758 42.6652L65.3194 59.2726L42.3089 61.2996L40.7196 61.4389H40.7176ZM66.4852 26.2839V47.5287L59.0449 28.9287L66.104 26.4212L66.4852 26.286V26.2839ZM12.9553 28.9267L5.51502 47.5287V26.2839L5.89621 26.4192L12.9553 28.9267ZM33.2773 67.0877V76.5018L14.5385 65.4383L33.2773 67.0898V67.0877ZM61.2473 22.3612L56.3867 24.0874L47.2805 12.5858L62.8165 21.802L61.2453 22.3592L61.2473 22.3612ZM24.7177 12.5858L15.6115 24.0874L10.7508 22.3612L9.17968 21.804L24.7177 12.5858ZM38.7229 67.0877L57.4617 65.4363L38.7229 76.4998V67.0857V67.0877Z" fill="#E61B4A"/>
</g>
<defs>
<clipPath id="clip0_113_223">
<rect width="71.8613" height="84" fill="white" transform="translate(0.0693359)"/>
</clipPath>
</defs>
</svg>
