<svg width="72" height="84" viewBox="0 0 72 84" fill="none" xmlns="http://www.w3.org/2000/svg">
<g clip-path="url(#clip0_113_257)">
<path d="M71.8306 22.6837C71.8306 22.6416 71.8286 22.6016 71.8266 22.5596C71.8266 22.5436 71.8266 22.5276 71.8266 22.5116C71.8186 22.3935 71.8026 22.2754 71.7786 22.1593C71.7746 22.1413 71.7706 22.1233 71.7666 22.1053C71.7586 22.0652 71.7486 22.0272 71.7386 21.9872C71.7326 21.9652 71.7246 21.9432 71.7186 21.9211C71.7085 21.8871 71.6985 21.8531 71.6865 21.8191C71.6785 21.7951 71.6685 21.773 71.6605 21.749C71.6485 21.717 71.6365 21.687 71.6245 21.655C71.6145 21.6309 71.6045 21.6089 71.5925 21.5849C71.5785 21.5549 71.5664 21.5249 71.5524 21.4969C71.5404 21.4728 71.5284 21.4508 71.5164 21.4268C71.5024 21.3988 71.4864 21.3708 71.4704 21.3428C71.4564 21.3187 71.4424 21.2967 71.4283 21.2747C71.4123 21.2487 71.3963 21.2207 71.3783 21.1946C71.3643 21.1726 71.3483 21.1506 71.3323 21.1286C71.3143 21.1026 71.2963 21.0786 71.2782 21.0525C71.2622 21.0305 71.2442 21.0105 71.2262 20.9885C71.2062 20.9645 71.1862 20.9405 71.1662 20.9165C71.1482 20.8964 71.1301 20.8764 71.1101 20.8544C71.0901 20.8324 71.0681 20.8104 71.0461 20.7884C71.0261 20.7684 71.0061 20.7503 70.986 20.7303C70.964 20.7083 70.94 20.6883 70.918 20.6683C70.898 20.6503 70.876 20.6323 70.854 20.6142C70.8299 20.5942 70.8059 20.5742 70.7799 20.5562C70.7579 20.5402 70.7359 20.5222 70.7139 20.5062C70.6878 20.4882 70.6618 20.4701 70.6358 20.4521C70.6138 20.4361 70.5898 20.4221 70.5658 20.4061C70.5517 20.3981 70.5397 20.3881 70.5257 20.3801L37.3949 0.38828C36.5363 -0.130078 35.4615 -0.130078 34.6029 0.38828L1.47405 20.3841C1.46004 20.3921 1.44803 20.4021 1.43402 20.4101C1.41 20.4261 1.38599 20.4401 1.36197 20.4561C1.33595 20.4741 1.30994 20.4922 1.28592 20.5102C1.2639 20.5262 1.23989 20.5442 1.21787 20.5602C1.19385 20.5802 1.16984 20.5982 1.14582 20.6182C1.12381 20.6363 1.10379 20.6543 1.08178 20.6723C1.05776 20.6923 1.03575 20.7143 1.01373 20.7363C0.993717 20.7543 0.973703 20.7744 0.953689 20.7944C0.931674 20.8164 0.909659 20.8404 0.889645 20.8624C0.871632 20.8824 0.85362 20.9024 0.835608 20.9225C0.815594 20.9465 0.79558 20.9705 0.775566 20.9945C0.759555 21.0145 0.741543 21.0345 0.725532 21.0566C0.705518 21.0826 0.687505 21.1086 0.669493 21.1346C0.653482 21.1566 0.639472 21.1766 0.623461 21.1987C0.605449 21.2247 0.589438 21.2527 0.571425 21.2807C0.557415 21.3027 0.543406 21.3247 0.531397 21.3468C0.515386 21.3748 0.499375 21.4028 0.485366 21.4308C0.473357 21.4528 0.461349 21.4768 0.449341 21.4989C0.435331 21.5289 0.421321 21.5569 0.409313 21.5869C0.399306 21.6109 0.387298 21.6329 0.377291 21.657C0.365283 21.687 0.353274 21.719 0.341266 21.751C0.333261 21.775 0.323254 21.7971 0.315248 21.8211C0.30324 21.8551 0.293233 21.8891 0.283226 21.9232C0.277222 21.9452 0.269216 21.9672 0.263212 21.9892C0.253205 22.0272 0.2452 22.0652 0.235193 22.1033C0.23119 22.1233 0.225186 22.1413 0.221183 22.1613C0.209175 22.2174 0.199168 22.2754 0.193164 22.3314C0.193164 22.3314 0.193164 22.3334 0.193164 22.3354C0.185158 22.3935 0.179154 22.4535 0.175151 22.5136C0.175151 22.5296 0.175151 22.5476 0.175151 22.5636C0.17315 22.6036 0.171149 22.6436 0.171149 22.6857C0.171149 22.6877 0.171149 22.6897 0.171149 22.6937C0.171149 22.6957 0.171149 22.6977 0.171149 22.6997V60.864C0.169147 61.8007 0.655483 62.6693 1.45203 63.1616L34.5809 83.5957C34.5969 83.6057 34.6149 83.6157 34.6329 83.6258C34.649 83.6358 34.665 83.6458 34.683 83.6558C34.689 83.6598 34.695 83.6618 34.701 83.6638C34.7911 83.7138 34.8831 83.7558 34.9772 83.7959C34.9912 83.8019 35.0072 83.8079 35.0212 83.8139C35.1153 83.8499 35.2113 83.8819 35.3074 83.908C35.3214 83.912 35.3354 83.914 35.3494 83.918C35.4475 83.942 35.5476 83.962 35.6496 83.976C35.6597 83.976 35.6697 83.976 35.6797 83.98C35.7857 83.992 35.8918 84 35.9979 84C36.104 84 36.21 83.992 36.3161 83.98C36.3261 83.98 36.3361 83.98 36.3461 83.976C36.4462 83.962 36.5463 83.944 36.6463 83.918C36.6603 83.914 36.6744 83.912 36.6884 83.908C36.7844 83.8819 36.8805 83.8499 36.9746 83.8139C36.9886 83.8079 37.0046 83.8019 37.0186 83.7959C37.1127 83.7579 37.2047 83.7138 37.2948 83.6638C37.3008 83.6598 37.3068 83.6578 37.3128 83.6558C37.3308 83.6458 37.3468 83.6358 37.3648 83.6237C37.3808 83.6137 37.3989 83.6057 37.4149 83.5957L70.5437 63.1616C71.3423 62.6693 71.8266 61.7987 71.8266 60.862V22.6977C71.8266 22.6977 71.8266 22.6937 71.8266 22.6917C71.8266 22.6897 71.8266 22.6877 71.8266 22.6837H71.8306Z" fill="#505CFF"/>
<path d="M35.9999 5.85803L63.9412 22.7237L59.2039 25.6437L35.9999 39.9576L8.05859 22.7237L35.9999 5.85803Z" fill="#3B48FF"/>
<path d="M5.573 27.539L33.2981 44.6408V76.4568L5.573 59.355V27.539Z" fill="#3B48FF"/>
<path d="M38.7019 76.4568V44.6408L66.427 27.539V59.355L38.7019 76.4568Z" fill="#3B48FF"/>
</g>
<defs>
<clipPath id="clip0_113_257">
<rect width="71.6615" height="84" fill="white" transform="translate(0.169189)"/>
</clipPath>
</defs>
</svg>
