<svg width="40" height="42" viewBox="0 0 40 42" fill="none" xmlns="http://www.w3.org/2000/svg">
<g clip-path="url(#clip0_98_1118)">
<path d="M19.5833 41.4259C19.3655 41.1844 19.3087 40.7324 19.1268 40.4405C18.9109 40.0941 18.646 39.7844 18.4168 39.448C18.1164 39.0071 17.7735 38.5977 17.4698 38.158C16.9505 37.406 16.3607 36.7523 15.7391 36.0898C14.214 34.4641 12.6211 32.9608 10.8109 31.6777C8.00629 29.6896 5.03364 27.9496 1.84605 26.7109C1.62491 26.6249 1.84605 26.7109 0.408173 25.9832C0.679601 25.5318 2.35356 23.0749 2.74597 22.423C3.40131 21.3342 3.8725 20.1438 4.36082 18.9688C4.98254 17.4726 5.53944 15.9411 5.98523 14.3793C6.5547 12.3842 7.03299 10.3602 7.40188 8.31489C7.50458 7.74561 8.11592 2.92275 8.48066 0.455109C11.68 1.41016 10.5826 1.1221 11.3081 1.316C13.318 1.85333 15.4265 1.95941 17.4895 2.12381C18.6653 2.21755 19.8305 2.20825 21.0082 2.18949C22.759 2.1616 24.5135 2.07589 26.2492 1.82662C27.1133 1.70254 27.9739 1.53357 28.8189 1.30882C29.4876 1.13098 29.9184 1.03081 31.3521 0.455109C31.5102 1.09184 33.1397 12.7101 35.3328 18.0521C36.2001 20.1645 38.8164 24.8036 39.6385 25.8507C38.4695 26.304 33.7664 28.5421 31.3243 30.0457C28.3249 31.8924 25.4892 34.1556 23.1483 36.8454C22.0437 38.115 21.1767 39.6015 20.2842 41.0326C19.9359 41.5908 19.8015 41.6666 19.5833 41.4259ZM20.5212 36.7851C21.1437 33.409 22.9394 29.1131 25.7419 24.2965C26.6873 22.6716 28.485 19.8831 29.5759 18.349C30.2524 17.3978 30.4694 17.0471 30.4694 16.9048C30.4694 16.7988 30.4305 16.7015 30.3802 16.6815C30.331 16.662 29.8971 16.7201 29.4158 16.8107C26.4614 17.3667 23.4549 17.5516 21.118 17.3209C20.0604 17.2165 19.286 17.0848 19.1985 16.9942C19.1366 16.9301 19.3758 15.3637 19.5707 14.558C20.3858 11.1871 22.2894 7.64503 24.7213 4.97419C25.0959 4.56288 25.3871 4.21058 25.3687 4.19148C25.35 4.17229 25.1195 4.22808 24.8562 4.31548C21.7701 5.33959 18.3389 5.44254 15.8685 4.5852C15.5311 4.46805 15.246 4.38115 15.2349 4.39189C15.2238 4.40271 15.2483 4.74918 15.2895 5.16192C15.6769 9.04587 13.8957 14.1374 10.1589 19.8273C9.59698 20.683 8.49756 22.2132 7.85886 23.0287C7.60123 23.3576 7.49127 23.5429 7.54588 23.556C7.59217 23.5672 8.06458 23.4617 8.59568 23.3217C10.1116 22.9222 11.3798 22.6769 13.1123 22.4484C14.4378 22.2736 17.7022 22.2895 18.8368 22.4763C19.5748 22.5978 20.5959 22.8321 20.6553 22.8937C20.6676 22.9064 20.638 23.0418 20.5896 23.1947C20.3328 24.0046 20.0029 25.6153 19.8509 26.8007C19.5585 29.0792 19.5588 32.7469 19.8513 35.454C19.9664 36.5187 20.1703 37.8844 20.2288 37.9824C20.2787 38.0658 20.3047 37.9595 20.5212 36.7851Z" fill="white"/>
</g>
<defs>
<clipPath id="clip0_98_1118">
<rect width="39.1837" height="41.1428" fill="white" transform="translate(0.408173 0.428566)"/>
</clipPath>
</defs>
</svg>
