<svg width="42" height="32" viewBox="0 0 42 32" fill="none" xmlns="http://www.w3.org/2000/svg">
<g clip-path="url(#clip0_100_1161)">
<path d="M37.8018 6.85045C39.0331 3.07304 41.3175 2.43515 41.3175 0.571426H29.1386L26.207 2.48895C26.5445 3.19409 26.7355 3.98761 26.7355 4.82725C26.7355 7.58441 24.6883 9.84394 22.0831 10.0687V31.4286C22.0831 31.4286 37.2808 22.6959 37.8018 18.2806C38.3229 13.8654 36.5706 10.6279 37.8018 6.85045Z" fill="white"/>
<path d="M3.94416 6.85045C2.71291 3.07304 0.428436 2.43515 0.428436 0.571426C1.76723 0.571426 12.6074 0.571426 12.6074 0.571426L15.539 2.48895C15.2015 3.19409 15.0105 3.98761 15.0105 4.82725C15.0105 7.58441 17.0576 9.84394 19.6629 10.0687V31.4286C19.6629 31.4286 4.46521 22.6959 3.94416 18.2806C3.4231 13.8654 5.1754 10.6279 3.94416 6.85045Z" fill="white"/>
</g>
<defs>
<clipPath id="clip0_100_1161">
<rect width="41.1428" height="30.8571" fill="white" transform="translate(0.428436 0.571426)"/>
</clipPath>
</defs>
</svg>
