<svg width="42" height="42" viewBox="0 0 42 42" fill="none" xmlns="http://www.w3.org/2000/svg">
<path d="M41.5713 20.9992C41.5713 32.3608 32.3615 41.5714 20.9991 41.5714C9.63832 41.5714 0.428497 32.3608 0.428497 20.9992C0.428497 9.63839 9.63832 0.428566 20.9991 0.428566C32.3615 0.428566 41.5713 9.63839 41.5713 20.9992Z" fill="#A3C095"/>
<path d="M39.0048 23.5611C39.0048 24.2474 38.7395 24.8629 38.2083 25.4117C37.678 25.9597 37.0687 26.2338 36.3832 26.2338C35.288 26.2338 34.4812 25.7195 33.9685 24.6917L31.5531 24.5889C31.0379 24.5889 30.0271 24.8123 28.5204 25.2574C26.9101 25.7026 25.9844 26.0626 25.7449 26.3366C25.3681 26.7472 25.0603 27.7075 24.82 29.215C24.6135 30.4484 24.5123 31.3565 24.5123 31.939C24.5123 32.8631 24.6571 33.5407 24.9488 33.969C25.2405 34.3973 25.84 34.7573 26.7472 35.0482C27.6544 35.3391 28.2123 35.5024 28.418 35.5366C28.5546 35.5366 28.7771 35.5197 29.0865 35.4851H29.7029C30.1472 35.4851 30.6101 35.5551 31.0906 35.6909C31.776 35.8966 32.0678 36.1706 31.9649 36.5137C31.4843 36.4454 30.6454 36.5483 29.4465 36.8223L30.8849 37.5415C30.8849 37.9529 30.3023 38.1578 29.138 38.1578C28.8286 38.1578 28.4093 38.0895 27.8778 37.9529C27.3466 37.8146 26.9953 37.7472 26.8249 37.7472H26.1563C26.1226 38.0895 26.0189 38.6029 25.8478 39.2884C25.2644 39.2538 24.5806 38.9107 23.7923 38.2606C23.0032 37.6106 22.5074 37.2843 22.3025 37.2843C22.096 37.2843 21.8043 37.6106 21.4282 38.2606C21.0505 38.9107 20.8625 39.3567 20.8625 39.597C20.4173 39.3567 20.0413 38.9107 19.7311 38.2606C19.5945 37.8146 19.4402 37.3695 19.2699 36.9243C18.9276 36.9589 18.2927 37.6789 17.3687 39.0835H17.1107C17.0424 38.9798 16.7836 38.2606 16.3401 36.9243C15.2778 36.582 14.2846 36.4109 13.3589 36.4109C12.9137 36.4109 12.2283 36.5137 11.3034 36.7186L9.86502 36.6166C10.0699 36.4109 10.6694 36.0171 11.6634 35.4345C12.8277 34.7491 13.7189 34.406 14.336 34.406C14.4372 34.406 14.5738 34.4237 14.7474 34.4574C14.9178 34.4928 15.056 34.5088 15.1589 34.5088C15.3967 34.5088 15.7834 34.3805 16.3146 34.1229C16.8457 33.8666 17.1535 33.6349 17.2386 33.4301C17.3255 33.2227 17.3687 32.6924 17.3687 31.8358C17.3687 29.8831 16.8544 28.4271 15.8258 27.4676C14.9338 26.611 13.4617 25.9947 11.4054 25.617C10.8574 27.5697 9.31535 28.5476 6.78096 28.5476C5.9581 28.5476 5.13606 28.051 4.31403 27.057C3.49282 26.063 3.08139 25.155 3.08139 24.333C3.08139 23.0649 3.6109 22.0203 4.67321 21.1966C3.81744 20.3071 3.38914 19.3991 3.38914 18.4742C3.38914 17.6168 3.65369 16.8639 4.18567 16.2114C4.71682 15.5621 5.41049 15.1844 6.26708 15.0808C6.19878 13.9855 6.55796 13.231 7.34626 12.8196C6.96939 12.4435 6.78137 11.7758 6.78137 10.8163C6.78137 9.6857 7.15824 8.74312 7.91197 7.98938C8.66489 7.23565 9.60747 6.85795 10.7381 6.85795C11.9724 6.85795 12.9832 7.2879 13.7707 8.14367C14.7647 4.75185 16.9062 3.05553 20.1943 3.05553C21.9075 3.05553 23.415 3.74097 24.7176 5.11185C25.1973 5.62532 25.4368 5.90015 25.4368 5.93306C25.0253 5.93306 25.2319 5.85572 26.0539 5.70225C26.8751 5.54797 27.4746 5.47062 27.8531 5.47062C29.1886 5.47062 30.3706 5.96721 31.3992 6.96122C32.2895 7.85238 32.9067 8.98216 33.2498 10.353C33.4884 10.3876 33.8661 10.4896 34.3804 10.6608C35.1333 11.0393 35.511 11.6885 35.511 12.6142C35.511 12.7862 35.3728 13.1117 35.0996 13.5906C37.2917 14.824 38.3885 16.5372 38.3885 18.7301C38.3885 19.3465 38.1491 20.2047 37.6693 21.3003C38.5605 21.8134 39.0048 22.5679 39.0048 23.5611ZM17.8299 25.8223V25.1546C17.8299 24.3671 17.4448 23.6471 16.6742 22.9962C15.9027 22.3454 15.1231 22.0199 14.3356 22.0199C13.3753 22.0199 12.4858 22.2425 11.663 22.6868C13.4786 22.5848 15.5349 23.6302 17.8299 25.8223ZM16.9058 19.4497C16.3915 18.8663 15.9463 18.2669 15.5687 17.6505C14.1295 18.0274 13.4103 18.4557 13.4103 18.9346C13.8217 18.9017 14.4212 18.9778 15.2087 19.1667C15.9961 19.3555 16.5627 19.4497 16.9058 19.4497ZM20.0413 17.8563V15.595C19.2184 15.4585 18.7202 15.3893 18.5507 15.3893V16.1599L20.0413 17.8563ZM26.7221 16.4171C26.3106 16.2459 25.5392 15.9028 24.4094 15.3893V19.8089C26.0189 18.8832 26.7895 17.7526 26.7221 16.4171ZM29.5473 22.4819L28.4176 21.0942C27.7329 21.5743 27.0385 22.0627 26.3353 22.5593C25.6322 23.0559 25.0245 23.6138 24.5119 24.2297C26.0535 23.406 27.7329 22.8251 29.5473 22.4819Z" fill="#0D0F0F"/>
</svg>
