<svg width="42" height="42" viewBox="0 0 42 42" fill="none" xmlns="http://www.w3.org/2000/svg">
<path d="M41.5712 20.9992C41.5712 32.3607 32.3614 41.5714 20.9989 41.5714C9.63817 41.5714 0.428345 32.3607 0.428345 20.9992C0.428345 9.63838 9.63817 0.428566 20.9989 0.428566C32.3614 0.428566 41.5712 9.63838 41.5712 20.9992Z" fill="#6EB000"/>
<path d="M32.3399 20.9691C32.3638 18.7704 31.6648 16.5508 30.2964 14.8273C29.6344 14.0987 29.0905 13.2692 28.3898 12.5805C26.8453 11.0475 24.5327 10.9455 22.6722 9.97987C22.5644 9.01013 22.2093 8.03998 22.4241 7.0616C22.4895 6.73616 22.5854 6.4062 22.4126 6.09516C21.9242 4.97114 22.3435 3.75084 22.2567 2.57868C22.1916 1.96648 22.2332 1.21727 21.6502 0.839165C21.5144 2.11336 21.0458 3.29909 20.6661 4.50828C20.4908 5.45045 20.4908 6.43212 20.0847 7.32081C20.3423 8.22101 19.8321 8.97886 19.28 9.64373C18.0597 10.2691 16.6073 10.4176 15.5454 11.3347C14.788 11.9774 13.9705 12.5406 13.1229 13.0635C12.4873 13.8592 11.7833 14.6257 11.5003 15.6308C10.3639 17.0029 10.2298 18.8445 9.58548 20.4515C9.57355 22.8374 10.057 25.4064 11.5809 27.3187C12.6712 28.2189 13.4332 29.4297 14.5218 30.3304C15.5668 30.9541 16.6822 31.4667 17.7614 32.0283C18.4649 32.1921 19.1911 32.2727 19.8909 32.464C20.4587 35.3889 20.8463 38.3849 21.9855 41.1587C22.364 40.0199 22.3184 38.7996 22.6446 37.6488C23.1046 35.9472 22.1608 34.176 22.6928 32.5056C23.4901 31.7926 24.8199 32.2554 25.7044 31.6436C27.388 30.6056 29.1695 29.5947 30.3906 28.0066C30.8448 27.0936 31.8001 26.4115 31.8001 25.3163C31.808 23.8413 32.6674 22.4601 32.3399 20.9691ZM19.8428 29.9917C18.6229 29.6951 17.4866 29.1117 16.4633 28.3991C15.3623 27.6655 14.9517 26.2967 13.8656 25.5463C12.8485 24.3321 13.0686 22.6737 12.6519 21.2361C12.8189 20.2331 13.016 19.2382 13.1201 18.2224C13.6162 17.4177 14.3819 16.7758 14.5942 15.8073C15.3212 14.7656 16.4284 14.0448 17.3175 13.1417C17.9642 12.3958 18.9936 12.7101 19.8432 12.6813C19.7589 13.5042 19.6918 14.355 19.8979 15.1667C19.9983 15.6654 20.2234 16.1566 20.146 16.6792C19.9757 17.7896 20.3925 18.9033 20.0979 20.001C19.5042 22.296 20.1518 24.6127 20.2081 26.9262C20.1238 27.9511 20.0761 28.9833 19.8428 29.9917ZM29.0905 25.6429C28.2824 26.2173 27.5937 26.9229 26.8889 27.6116C25.6633 28.4592 24.4516 29.3561 22.9931 29.7799C23.1244 28.7394 23.2527 27.6688 22.9211 26.6501C22.1073 24.3486 23.1046 21.9413 23.2725 19.6139C23.1244 18.2302 23.2659 16.754 22.6319 15.4794C22.5484 14.522 22.9623 13.5976 23.2428 12.6965C24.2064 13.0812 25.1136 13.6004 25.9155 14.2682C26.884 14.9939 28.3676 15.4646 28.5844 16.8182C28.6951 17.7073 29.6677 18.2451 29.6393 19.1547C29.5797 21.3172 29.878 23.5788 29.0905 25.6429Z" fill="#111212"/>
</svg>
