<svg width="42" height="42" viewBox="0 0 42 42" fill="none" xmlns="http://www.w3.org/2000/svg">
<path d="M20.9999 41.5714C32.3612 41.5714 41.5713 32.3613 41.5713 21C41.5713 9.6387 32.3612 0.428566 20.9999 0.428566C9.6386 0.428566 0.428467 9.6387 0.428467 21C0.428467 32.3613 9.6386 41.5714 20.9999 41.5714Z" fill="#E49977"/>
<path d="M38.2655 27.8367C36.7284 31.5033 33.674 33.3363 29.1009 33.3363C28.2628 33.3363 27.354 33.4408 26.3769 33.6498C24.9105 33.9641 24.1774 34.4019 24.1774 34.9606C24.1774 35.135 24.2987 35.335 24.5439 35.5625C24.7875 35.79 24.9982 35.9023 25.1722 35.9023C24.2987 35.9023 24.8924 35.9287 26.952 35.9809C29.0125 36.0332 30.3044 36.0595 30.8285 36.0595C27.7909 37.8393 22.7102 38.6593 15.588 38.5203C13.2478 38.4857 11.2408 37.4555 9.56507 35.4304C7.92265 33.5095 7.10309 31.3622 7.10309 28.9883C7.10309 26.4753 7.94939 24.3358 9.64407 22.5721C11.3363 20.8103 13.4411 19.9278 15.9546 19.9278C16.5129 19.9278 17.2547 20.05 18.1804 20.2944C19.1053 20.5388 19.7257 20.661 20.0392 20.661C21.3307 20.661 22.9377 20.129 24.8583 19.0634C26.778 17.9986 27.6868 17.4658 27.5823 17.4658C27.2326 21.1325 26.0107 23.5945 23.9149 24.8501C22.414 25.7236 21.6631 26.5785 21.6631 27.4158C21.6631 27.9395 21.9775 28.3592 22.6057 28.6735C23.0945 28.9183 23.6351 29.0405 24.2288 29.0405C25.1368 29.0405 26.0271 28.4826 26.9006 27.3656C27.7724 26.2473 28.1575 25.2356 28.053 24.3268C27.9485 23.2797 28.0185 22.0216 28.2628 20.5565C28.332 20.1368 28.585 19.6225 29.0215 19.012C29.458 18.4006 29.851 18.0254 30.2003 17.8855C30.2003 18.199 30.0871 18.7236 29.8596 19.4563C29.6321 20.1891 29.5198 20.7317 29.5198 21.0802C29.5198 21.8483 29.7288 22.4416 30.148 22.8601C30.7754 22.6165 31.3342 21.8307 31.8242 20.503C32.2422 19.4913 32.4862 18.5133 32.5569 17.5707C31.0898 17.5008 29.6843 16.838 28.3406 15.5802C26.9961 14.3225 26.3246 12.9615 26.3246 11.4956C26.3246 11.2512 26.3583 11.0068 26.4299 10.762C26.6389 11.0763 26.9529 11.5655 27.3717 12.2283C27.9654 13.101 28.4196 13.5375 28.7348 13.5375C29.1528 13.5375 29.3622 13.101 29.3622 12.2283C29.3622 11.1113 29.0647 10.0988 28.4718 9.19076C27.8082 8.10829 26.9524 7.56685 25.9054 7.56685C25.4162 7.56685 24.683 7.82893 23.7067 8.35268C22.7279 8.8756 21.8376 9.1385 21.0357 9.1385C20.7905 9.1385 19.7072 8.82335 17.7875 8.1951C21.1735 7.63761 22.8678 7.13115 22.8678 6.67652C22.8678 5.48955 20.5453 4.68603 15.9023 4.2676C15.4477 4.23304 14.61 4.1631 13.3881 4.05778C13.5271 3.88333 14.5228 3.69119 16.3742 3.48178C17.945 3.30815 19.0452 3.2197 19.673 3.2197C27.9827 3.2197 33.2551 7.25375 35.4896 15.319C35.8739 15.0009 36.0664 14.469 36.0664 13.7263C36.0664 12.7702 35.7866 11.5663 35.2283 10.1152C35.0177 9.54952 34.6861 8.69951 34.2327 7.56726C37.095 11.2154 38.5276 14.6726 38.5276 17.9348C38.5276 19.6538 38.1248 21.2152 37.3221 22.6173C36.7996 23.5648 35.8204 24.7748 34.3898 26.2486C32.9581 27.7215 31.9801 28.862 31.4559 29.6688C33.3765 29.1459 34.6342 28.7439 35.2279 28.4641C36.554 27.8717 37.7582 26.9805 38.8415 25.7931C38.8415 26.2482 38.6494 26.9295 38.2655 27.8367ZM15.4304 7.25498C15.4304 7.88241 15.0807 8.28438 14.3833 8.45882L13.0211 8.66865C12.5319 8.91304 11.8164 9.87332 10.8738 11.5487C10.7685 11.0257 10.6117 10.2926 10.4023 9.34916C10.088 9.38454 9.56507 9.66349 8.83149 10.1872C8.51716 10.4316 8.01029 10.7978 7.31209 11.2866C7.52274 10.0297 8.22011 8.75711 9.40791 7.46317C10.6648 6.03263 11.8868 5.31675 13.0737 5.31675C14.6446 5.31675 15.4304 5.96351 15.4304 7.25498ZM24.5435 12.0724C24.5435 12.6661 24.2206 13.1643 23.5746 13.5655C22.9287 13.9674 22.2914 14.1682 21.6631 14.1682C20.825 14.1682 20.0738 13.6967 19.4114 12.7537C18.607 11.6013 17.7875 10.8509 16.9494 10.5003C17.1238 10.3267 17.3337 10.2391 17.5785 10.2391C17.8928 10.2391 18.4239 10.4835 19.1752 10.9718C19.9257 11.461 20.4054 11.7054 20.616 11.7054C20.7905 11.7054 21.0781 11.461 21.48 10.9718C21.8812 10.4831 22.3263 10.2391 22.8155 10.2391C23.9675 10.2395 24.5435 10.8509 24.5435 12.0724Z" fill="#0D0F0F"/>
</svg>
