<svg width="38" height="42" viewBox="0 0 38 42" fill="none" xmlns="http://www.w3.org/2000/svg">
<path d="M33.6625 13.1788C33.4983 13.1088 33.4327 13.0317 33.4434 12.847C33.6371 8.60672 29.0661 5.4795 25.1631 7.2364C24.9821 7.31605 24.7742 7.53471 24.6354 7.45151C23.5364 3.51002 20.463 0.809465 16.3169 0.447227C11.2203 0.111877 6.57819 4.34154 6.66512 9.49557C6.66258 9.64473 6.61378 9.69648 6.47602 9.72945C3.1891 10.529 0.644866 13.4279 0.429331 16.8093C-0.0581661 21.2891 3.78945 25.5446 8.32485 25.4467C11.7993 25.4838 12.6884 25.434 15.8355 25.4614L15.5061 26.4335C15.1168 27.5821 14.7269 28.7312 14.338 29.8798C14.2694 30.0833 14.1651 30.3902 14.3802 30.6895C14.5957 30.9894 14.9251 30.9899 15.1432 30.9899C15.4009 30.9899 15.6592 30.9904 15.9169 30.9909C16.5371 30.9919 17.173 30.9929 17.8079 30.9899C17.39 32.1278 16.9514 33.2749 16.5249 34.3901C15.7313 36.4646 14.9109 38.6101 14.2084 40.7389C14.1128 41.028 14.2368 41.3436 14.5032 41.4912C14.6003 41.545 14.7065 41.5714 14.8118 41.5714C14.9948 41.5714 15.1752 41.4923 15.2993 41.3441L25.7985 28.8175C25.9566 28.6287 25.9911 28.3654 25.8869 28.1422C25.7827 27.919 25.558 27.7764 25.3115 27.7764H22.6763C23.1302 26.9906 23.5755 26.2082 24.0132 25.434C27.6066 25.4513 33.9294 26.0327 36.1335 23.1384C38.9243 20.0066 37.5777 14.6699 33.663 13.1793L33.6625 13.1788ZM21.0216 28.7262C21.135 28.923 21.3449 29.0448 21.5727 29.0448H23.9512L16.5767 37.8435C16.9503 36.8344 17.3346 35.8304 17.7123 34.8426C18.2146 33.5296 18.7336 32.1725 19.218 30.8316C19.2684 30.6972 19.3949 30.3527 19.1718 30.0346C18.9461 29.7124 18.5785 29.716 18.4408 29.7175C17.6015 29.7256 16.7465 29.7241 15.9194 29.7226C15.8574 29.7226 15.7954 29.7226 15.7334 29.7226C16.0587 28.7617 16.3846 27.8008 16.7104 26.8404L17.1059 25.674C17.327 25.0373 17.541 24.3844 17.7479 23.7527C18.0799 22.7391 18.4215 21.695 18.8022 20.697C21.1279 20.6788 23.1587 20.6686 25.2312 20.6915C24.7676 21.5078 24.3106 22.319 23.8653 23.111C22.9518 24.7334 22.0078 26.4112 21.0247 28.091C20.9098 28.2873 20.9088 28.5293 21.0221 28.7267L21.0216 28.7262Z" fill="white"/>
</svg>
