<svg width="42" height="42" viewBox="0 0 42 42" fill="none" xmlns="http://www.w3.org/2000/svg">
<path d="M20.9998 41.5714C32.361 41.5714 41.5712 32.3613 41.5712 21C41.5712 9.6387 32.361 0.428566 20.9998 0.428566C9.63848 0.428566 0.428345 9.6387 0.428345 21C0.428345 32.3613 9.63848 41.5714 20.9998 41.5714Z" fill="#F8F6D8"/>
<path d="M40.6212 23.9063C37.9218 22.3844 36.1909 21.6225 35.4302 21.6225C34.8773 21.6225 34.4449 22.0471 34.1326 22.8946C33.8207 23.7434 33.1986 24.1659 32.2643 24.1659C31.8833 24.1659 31.1049 24.0277 29.9282 23.7512C29.2707 24.7551 28.9416 25.3953 28.9416 25.6717C28.9416 26.0527 29.2251 26.5012 29.7908 27.0216C30.3565 27.5409 30.8337 27.7997 31.2234 27.7997C31.471 27.7997 31.8059 27.7482 32.231 27.6437C32.6551 27.5409 32.939 27.4886 33.0801 27.4886C33.5051 27.4886 33.7166 28.2674 33.7166 29.8247C33.7166 31.3128 33.371 33.5967 32.6786 36.6766C31.7784 33.1466 30.8272 31.3811 29.8241 31.3811C29.685 31.3811 29.3999 31.4848 28.9675 31.6938C28.5343 31.9004 28.2146 32.004 28.0072 32.004C27.0042 32.004 26.1044 31.0878 25.3078 29.2524C23.716 29.4951 22.9195 30.3085 22.9195 31.6938C22.9195 32.3867 23.2392 32.9392 23.8806 33.3539C24.5196 33.7687 24.8409 34.0645 24.8409 34.2364C24.8409 35.1716 23.4733 36.6079 20.7393 38.5453C19.2866 39.5834 18.2819 40.31 17.7293 40.7247C18.2123 40.1026 18.697 39.29 19.1829 38.2857C19.7359 37.144 20.0132 36.2615 20.0132 35.6378C20.0132 35.2922 19.6153 34.8067 18.8192 34.1842C18.0227 33.5621 17.6261 32.9042 17.6261 32.2122C17.6261 31.6247 17.8326 30.8985 18.2481 30.0321C17.798 29.5128 17.2628 29.2524 16.6395 29.2524C15.255 29.2524 14.5638 29.7033 14.5638 30.6019C14.5638 29.979 14.5638 30.446 14.5638 32.0032C14.5975 33.1453 13.7327 33.7164 11.9673 33.7164C10.6182 33.7164 8.35041 33.4041 5.1676 32.782C8.76677 31.8818 10.566 30.8438 10.566 29.6675C10.566 29.8058 10.4968 29.3911 10.3586 28.4217C10.2195 27.3504 10.9815 26.3806 12.6424 25.5158C12.3306 23.9248 11.5015 23.1271 10.1504 23.1271C9.94305 23.1271 9.56125 23.4908 9.0087 24.2161C8.45492 24.9448 7.9361 25.3072 7.45226 25.3072C6.62118 25.3072 5.54776 24.4078 4.23407 22.607C3.61035 21.7085 2.65831 20.3754 1.37836 18.61C2.17406 19.0264 2.97017 19.4411 3.7667 19.857C4.80473 20.3409 5.63498 20.5836 6.25871 20.5836C6.74337 20.5836 7.21899 20.1594 7.68596 19.3115C8.15293 18.4635 8.7676 18.0393 9.52874 18.0393C9.63324 18.0393 10.3253 18.2467 11.6052 18.6631C12.2619 17.6596 12.5918 16.9153 12.5918 16.4307C12.5918 16.0151 12.3404 15.5395 11.8389 15.0026C11.3366 14.4665 10.8786 14.1982 10.4631 14.1982C10.2895 14.1982 10.0221 14.2497 9.65794 14.3542C9.29547 14.4579 9.02722 14.5101 8.85442 14.5101C8.23069 14.5101 7.91924 13.7313 7.91924 12.174C7.91924 11.7585 8.31791 9.38865 9.11402 5.06248C9.07864 5.58088 9.30369 6.55061 9.78836 7.96881C10.3767 9.69969 11.0683 10.5645 11.8657 10.5645C12.0031 10.5645 12.2804 10.4608 12.6959 10.2526C13.1106 10.0453 13.4394 9.94243 13.6817 9.94243C14.4774 9.94243 15.1345 10.3925 15.6545 11.2907L16.4333 12.692C17.1599 12.692 17.7655 12.4332 18.2494 11.914C18.734 11.3948 18.9768 10.7715 18.9768 10.0449C18.9768 9.28373 18.6571 8.70362 18.0165 8.30577C17.3751 7.90792 17.0554 7.6051 17.0554 7.39774C17.0554 6.67034 18.198 5.44264 20.4818 3.71217C22.3155 2.32854 23.5095 1.51514 24.0641 1.2724C22.576 3.27976 21.8317 4.74938 21.8317 5.68456C21.8317 6.16922 22.125 6.68885 22.7142 7.24181C23.4408 7.89928 23.8559 8.36666 23.9596 8.64314C24.3052 9.44049 24.2706 10.5299 23.8559 11.9136C24.7903 12.5719 25.4992 12.8994 25.9846 12.8994C26.9869 12.8994 27.4896 12.3793 27.4896 11.3421C27.4896 11.2384 27.4464 10.9097 27.3605 10.3563C27.2728 9.80337 27.2481 9.4915 27.2819 9.42197C27.4201 8.93731 28.3722 8.69457 30.1368 8.69457C31.2439 8.69457 33.5446 9.00643 37.041 9.62974C36.279 9.8371 35.1373 10.1481 33.6154 10.5637C32.2309 10.9792 31.5381 11.4462 31.5381 11.965C31.5381 12.2078 31.6241 12.6225 31.7977 13.2104C31.9705 13.7996 32.0581 14.2307 32.0581 14.5089C32.0581 14.9927 31.7463 15.4428 31.1238 15.8571L29.3584 17.1042C29.7739 17.8661 30.0504 18.3158 30.1894 18.4532C30.535 18.868 31.002 19.0761 31.5908 19.0761C32.0063 19.0761 32.3865 18.7128 32.7325 17.9867C33.0781 17.2593 33.6327 16.8964 34.3934 16.8964C35.3274 16.8964 36.3839 17.762 37.5602 19.4929C38.2156 20.4639 39.2368 21.9339 40.6212 23.9063ZM29.0983 20.8963C29.0983 18.6824 28.2841 16.761 26.6577 15.1338C25.0314 13.5075 23.1108 12.6941 20.8961 12.6941C18.646 12.6941 16.7078 13.4992 15.0822 15.1087C13.4558 16.7174 12.6247 18.647 12.591 20.8959C12.5556 23.1106 13.3777 25.0225 15.0563 26.6304C16.7349 28.2399 18.6814 29.045 20.8957 29.045C23.2486 29.045 25.2124 28.2744 26.7865 26.7349C28.3623 25.1961 29.1321 23.2501 29.0983 20.8963ZM28.3195 20.8963C28.3195 23.0073 27.6098 24.7559 26.1908 26.1379C24.7709 27.5232 23.0063 28.2152 20.8961 28.2152C18.8542 28.2152 17.1064 27.5063 15.6537 26.0865C14.2009 24.6691 13.4735 22.9382 13.4735 20.8963C13.4735 18.8898 14.2079 17.1671 15.6784 15.7316C17.1505 14.2958 18.8887 13.5766 20.8961 13.5766C22.9026 13.5766 24.6417 14.3032 26.113 15.7576C27.5835 17.2111 28.3195 18.9235 28.3195 20.8963Z" fill="#0D0F0F"/>
</svg>
